<svg width="18" height="14" viewBox="0 0 18 14" fill="none" xmlns="http://www.w3.org/2000/svg">
<path d="M8.65466 0C3.87513 0 0 6.7149 0 6.7149C0 6.7149 3.87513 13.6067 8.65466 13.6067C13.4342 13.6067 17.3093 6.7149 17.3093 6.7149C17.3093 6.7149 13.4342 0 8.65466 0ZM8.65466 11.3389C6.26489 11.3389 4.32733 9.30811 4.32733 6.80334C4.32733 4.29858 6.26489 2.26778 8.65466 2.26778C11.0444 2.26778 12.982 4.29858 12.982 6.80334C12.982 9.30811 11.0444 11.3389 8.65466 11.3389Z" fill="black"/>
<path d="M10.8183 6.81247C10.8183 8.06486 9.84952 9.08026 8.65463 9.08026C7.45975 9.08026 6.49097 8.06486 6.49097 6.81247C6.49097 5.56009 7.45975 4.54469 8.65463 4.54469C9.84952 4.54469 10.8183 5.56009 10.8183 6.81247Z" fill="black"/>
</svg>
