<svg width="29" height="29" viewBox="0 0 29 29" fill="none" xmlns="http://www.w3.org/2000/svg">
<path fill-rule="evenodd" clip-rule="evenodd" d="M24.8071 5.47375C24.9672 5.30196 25.0543 5.07474 25.0502 4.83995C25.046 4.60517 24.9509 4.38117 24.7849 4.21513C24.6188 4.04909 24.3948 3.95398 24.16 3.94983C23.9253 3.94569 23.698 4.03284 23.5262 4.19292L4.19292 23.5263C4.10388 23.6092 4.03246 23.7093 3.98293 23.8204C3.9334 23.9316 3.90676 24.0516 3.90462 24.1733C3.90247 24.295 3.92485 24.4158 3.97043 24.5287C4.01601 24.6415 4.08385 24.744 4.16991 24.8301C4.25597 24.9161 4.35847 24.984 4.47132 25.0296C4.58416 25.0751 4.70503 25.0975 4.82671 25.0954C4.9484 25.0932 5.0684 25.0666 5.17957 25.0171C5.29073 24.9675 5.39078 24.8961 5.47375 24.8071L9.14104 21.1398C10.7336 21.8745 12.557 22.3542 14.5 22.3542C17.6634 22.3542 20.5078 21.0842 22.5572 19.511C23.5842 18.7231 24.4265 17.8483 25.0161 16.9976C25.5961 16.1615 25.9792 15.2842 25.9792 14.5C25.9792 13.7158 25.5961 12.8385 25.0161 12.0036C24.4265 11.1517 23.5842 10.2769 22.5572 9.49025C22.2309 9.23892 21.8829 8.99484 21.518 8.76404L24.8071 5.47375ZM18.2821 12.0012L16.9529 13.3279C17.1952 13.8353 17.2743 14.4052 17.1792 14.9594C17.0841 15.5135 16.8196 16.0245 16.422 16.4221C16.0245 16.8196 15.5135 17.0841 14.9593 17.1792C14.4052 17.2743 13.8352 17.1952 13.3279 16.9529L11.9987 18.2821C12.8701 18.859 13.9141 19.117 14.9539 19.0124C15.9937 18.9078 16.9654 18.447 17.7044 17.708C18.4433 16.969 18.9042 15.9974 19.0088 14.9576C19.1134 13.9178 18.8554 12.8737 18.2785 12.0024L18.2821 12.0012Z" fill="black"/>
<path d="M15.3096 10.0413C15.3593 10.0506 15.4105 10.0477 15.4589 10.033C15.5073 10.0183 15.5514 9.9921 15.5875 9.95667L17.9437 7.60042C17.9804 7.56439 18.0069 7.51939 18.0207 7.4699C18.0345 7.42041 18.0351 7.36816 18.0223 7.31839C18.0096 7.26861 17.9841 7.22304 17.9482 7.18623C17.9124 7.14942 17.8675 7.12267 17.8181 7.10863C16.7382 6.80427 15.6219 6.64857 14.5 6.64584C11.3366 6.64584 8.49217 7.91579 6.44283 9.48904C5.41575 10.2769 4.57354 11.1517 3.98267 12.0024C3.40267 12.8385 3.02083 13.7158 3.02083 14.5C3.02083 15.2842 3.40387 16.1615 3.98267 16.9964C4.55766 17.8034 5.23701 18.5307 6.003 19.1593C6.06032 19.2067 6.13331 19.2309 6.20758 19.2271C6.28184 19.2233 6.35199 19.1918 6.40417 19.1388L9.95667 15.5863C9.99209 15.5502 10.0183 15.5061 10.033 15.4577C10.0477 15.4093 10.0506 15.3581 10.0412 15.3084C9.91031 14.5877 9.95601 13.8461 10.1744 13.147C10.3929 12.4479 10.7775 11.8121 11.2954 11.2942C11.8133 10.7763 12.4491 10.3917 13.1482 10.1732C13.8473 9.9548 14.5889 9.9091 15.3096 10.04V10.0413Z" fill="black"/>
</svg>
