<svg width="21" height="20" viewBox="0 0 21 20" fill="none" xmlns="http://www.w3.org/2000/svg">
<path fill-rule="evenodd" clip-rule="evenodd" d="M20.5986 7.44213L20.6783 7.70529C20.7439 7.90391 20.6887 8.12465 20.5387 8.26318L15.6921 12.6316L17.1281 19.1788C17.1767 19.3881 17.1021 19.6078 16.9386 19.7367L16.7192 19.8946C16.634 19.9652 16.5283 20.0023 16.4201 19.9999C16.3287 20.0019 16.2388 19.9763 16.1608 19.9262L10.7058 16.421L5.28071 19.9262C5.20271 19.9763 5.11274 20.0019 5.02142 19.9999C4.91317 20.0023 4.80746 19.9652 4.72224 19.8946L4.47292 19.7367C4.30942 19.6078 4.23482 19.3881 4.28344 19.1788L5.7195 12.6316L0.882804 8.2737C0.725074 8.136 0.665369 7.90913 0.733216 7.70529L0.842914 7.44213C0.901242 7.23416 1.0766 7.08693 1.28171 7.07372L7.65418 6.53688L10.0975 0.336955C10.1757 0.131058 10.366 -0.0027956 10.5761 0.000116994H10.8354C11.0437 -0.00454821 11.2319 0.130692 11.3041 0.336955L13.7873 6.53688L20.1598 7.07372C20.3649 7.08693 20.5402 7.23416 20.5986 7.44213ZM14.8145 16.9052L13.6976 11.9789L17.3575 8.68423L12.5607 8.28423L10.7058 3.58955V14.2631L14.8145 16.9052Z" fill="#F2DA06"/>
</svg>
