<svg width="22" height="20" viewBox="0 0 22 20" fill="none" xmlns="http://www.w3.org/2000/svg">
<path d="M9.95723 0.648363C10.3212 -0.216122 11.5608 -0.216121 11.9248 0.648365L14.0729 5.75071C14.2264 6.11516 14.5734 6.36417 14.9716 6.39571L20.5473 6.83732C21.4921 6.91215 21.8751 8.07684 21.1553 8.68594L16.9072 12.2809C16.6038 12.5378 16.4712 12.9407 16.5639 13.3246L17.8618 18.6999C18.0817 19.6106 17.0789 20.3305 16.2701 19.8424L11.4964 16.9619C11.1554 16.7561 10.7266 16.7561 10.3856 16.9619L5.61194 19.8424C4.80313 20.3305 3.80026 19.6106 4.02016 18.6999L5.31805 13.3246C5.41075 12.9407 5.27824 12.5378 4.97481 12.2809L0.726613 8.68594C0.00684711 8.07684 0.389914 6.91215 1.33462 6.83732L6.91045 6.39571C7.30872 6.36417 7.65565 6.11516 7.80908 5.75071L9.95723 0.648363Z" fill="#F2DA06"/>
</svg>
