<svg width="22" height="20" viewBox="0 0 22 20" fill="none" xmlns="http://www.w3.org/2000/svg">
<path d="M9.60445 0.648363C9.96841 -0.216122 11.208 -0.216121 11.572 0.648365L13.7201 5.75071C13.8736 6.11516 14.2206 6.36417 14.6188 6.39571L20.1946 6.83732C21.1393 6.91215 21.5223 8.07684 20.8026 8.68594L16.5545 12.2809C16.251 12.5378 16.1185 12.9407 16.2112 13.3246L17.509 18.6999C17.7289 19.6106 16.7261 20.3305 15.9173 19.8424L11.1436 16.9619C10.8026 16.7561 10.3738 16.7561 10.0328 16.9619L5.25916 19.8424C4.45035 20.3305 3.44748 19.6106 3.66737 18.6999L4.96526 13.3246C5.05797 12.9407 4.92545 12.5378 4.62203 12.2809L0.37383 8.68594C-0.345936 8.07684 0.0371306 6.91215 0.981836 6.83732L6.55766 6.39571C6.95593 6.36417 7.30286 6.11516 7.4563 5.75071L9.60445 0.648363Z" fill="#F2DA06"/>
</svg>
