<svg width="22" height="20" viewBox="0 0 22 20" fill="none" xmlns="http://www.w3.org/2000/svg">
<path d="M13.7885 5.94472L13.7885 5.94482C14.0155 6.48365 14.5264 6.84804 15.1085 6.89415L20.6843 7.33576C21.1946 7.37618 21.3796 7.99045 21.0087 8.30427L16.7606 11.8993L16.7606 11.8993C16.3141 12.2772 16.1168 12.8727 16.2543 13.4419L17.5522 18.8172C17.6638 19.2797 17.1479 19.6817 16.7048 19.4144C16.7048 19.4143 16.7048 19.4143 16.7048 19.4143L11.9311 16.5338C11.4313 16.2321 10.8035 16.2321 10.3037 16.5338C10.3037 16.5338 10.3037 16.5338 10.3037 16.5338L5.53003 19.4143C5.08687 19.6817 4.57091 19.2797 4.68258 18.8172L5.98047 13.4419C5.98047 13.4419 5.98047 13.4419 5.98047 13.4419C6.11792 12.8727 5.92075 12.2772 5.47424 11.8993L5.47419 11.8993L1.22599 8.30427C0.855174 7.99046 1.04013 7.37618 1.55049 7.33576L7.12631 6.89415C7.70845 6.84805 8.2194 6.48366 8.4463 5.94472L10.5944 0.842378C10.7866 0.385874 11.4482 0.385873 11.6404 0.84238L13.7885 5.94472Z" fill="#F2DA06" stroke="#F2DA06"/>
</svg>
