<svg width="22" height="20" viewBox="0 0 22 20" fill="none" xmlns="http://www.w3.org/2000/svg">
<path d="M9.78084 0.648363C10.1448 -0.216122 11.3844 -0.216121 11.7484 0.648365L13.8965 5.75071C14.05 6.11516 14.397 6.36417 14.7952 6.39571L20.371 6.83732C21.3157 6.91215 21.6987 8.07684 20.979 8.68594L16.7308 12.2809C16.4274 12.5378 16.2948 12.9407 16.3875 13.3246L17.6854 18.6999C17.9053 19.6106 16.9025 20.3305 16.0937 19.8424L11.32 16.9619C10.979 16.7561 10.5502 16.7561 10.2092 16.9619L5.43555 19.8424C4.62674 20.3305 3.62387 19.6106 3.84376 18.6999L5.14166 13.3246C5.23436 12.9407 5.10184 12.5378 4.79842 12.2809L0.550222 8.68594C-0.169544 8.07684 0.213522 6.91215 1.15823 6.83732L6.73405 6.39571C7.13232 6.36417 7.47925 6.11516 7.63269 5.75071L9.78084 0.648363Z" fill="#F2DA06"/>
</svg>
